<?xml version="1.0" encoding="utf-8"?>
<!-- Generator: Adobe Illustrator 17.1.0, SVG Export Plug-In . SVG Version: 6.00 Build 0)  -->
<!DOCTYPE svg PUBLIC "-//W3C//DTD SVG 1.1//EN" "http://www.w3.org/Graphics/SVG/1.1/DTD/svg11.dtd">
<svg version="1.1" id="Layer_1" xmlns="http://www.w3.org/2000/svg" xmlns:xlink="http://www.w3.org/1999/xlink" x="0px" y="0px"
	 viewBox="0 0 130 58" enable-background="new 0 0 130 58" xml:space="preserve">
<g id="XMLID_2_">
	<path id="XMLID_21_" d="M70.3,15.2c0,1.9-0.3,3.7-0.9,5.4c-0.6,1.7-1.5,3.2-2.7,4.5c-1.1,1.3-2.5,2.3-4.1,3.1
		c-1.6,0.8-3.4,1.1-5.4,1.1c-2,0-3.8-0.4-5.4-1.1c-1.6-0.8-3-1.8-4.1-3.1c-1.1-1.3-2-2.8-2.6-4.5c-0.6-1.7-0.9-3.5-0.9-5.5
		c0-1.9,0.3-3.8,1-5.4c0.7-1.7,1.6-3.2,2.8-4.4c1.2-1.3,2.6-2.2,4.3-3c1.6-0.7,3.5-1.1,5.4-1.1c1.9,0,3.7,0.4,5.3,1.1
		c1.6,0.7,2.9,1.8,4.1,3c1.1,1.3,2,2.7,2.6,4.4C70,11.5,70.3,13.3,70.3,15.2z M65.8,15.4c0-1,0-2-0.1-3c-0.1-1-0.3-2-0.5-2.9
		c-0.2-0.9-0.6-1.8-1-2.7c-0.4-0.8-1-1.5-1.6-2.2c-0.6-0.6-1.4-1.1-2.3-1.5c-0.9-0.4-2-0.5-3.2-0.5c-1.1,0-2.1,0.2-3,0.5
		c-0.8,0.4-1.6,0.8-2.2,1.5c-0.6,0.6-1.2,1.3-1.6,2.2c-0.4,0.8-0.8,1.7-1,2.6c-0.3,0.9-0.4,1.9-0.5,2.8c-0.1,1-0.2,1.9-0.2,2.8
		c0,0.9,0.1,1.8,0.2,2.8c0.1,1,0.3,1.9,0.6,2.9c0.3,0.9,0.6,1.8,1,2.7c0.4,0.9,0.9,1.6,1.6,2.3c0.6,0.6,1.4,1.2,2.2,1.5
		c0.9,0.4,1.8,0.6,3,0.6c1.2,0,2.2-0.2,3.1-0.5c0.9-0.4,1.6-0.8,2.3-1.4c0.6-0.6,1.2-1.3,1.6-2.1c0.4-0.8,0.8-1.7,1-2.6
		c0.3-0.9,0.4-1.9,0.5-2.9C65.7,17.4,65.8,16.4,65.8,15.4z"/>
	<path id="XMLID_19_" d="M113.7,13.3c-0.3,0-0.6-0.2-0.7-0.5c-0.5-1.6-0.7-3-1.3-4c-0.6-1.2-1.5-2.1-2.4-2.8c-0.9-0.7-2.3-1-3.6-1.3
		c-1.3-0.3-2.9-0.4-4.7-0.4H89.2c-0.4,0-0.7,0.3-0.7,0.7v20.3c0,0.4,0.3,0.7,0.7,0.7h9.4c1.4,0,2.5-0.2,3.3-0.5
		c0.8-0.3,1.5-0.8,2.1-1.5c0.5-0.6,0.9-1.4,1.2-2.4c0.2-0.8,0.4-1.7,0.5-2.6c0.1-0.4,0.4-0.6,0.7-0.6h0.2c0.4,0,0.7,0.3,0.7,0.7
		v17.3c0,0.4-0.3,0.7-0.7,0.7h-0.1c-0.4,0-0.7-0.3-0.7-0.7c0-1-0.1-1.9-0.3-2.7c-0.2-1-0.6-1.8-1.2-2.4c-0.6-0.6-1.3-1.1-2.2-1.5
		c-0.9-0.3-2.1-0.5-3.4-0.5h-9.4c-0.4,0-0.7,0.3-0.7,0.7v16.7c0,1.7,0.1,3.1,0.2,4.1c0.2,1.1,0.5,1.9,1.1,2.5c0.6,0.6,1.4,1,2.4,1.2
		c0.9,0.2,2.1,0.3,3.5,0.3c0.4,0,0.7,0.3,0.7,0.7v0.1c0,0.4-0.3,0.7-0.7,0.7H73.5c-0.4,0-0.7-0.3-0.7-0.7v-0.1
		c0-0.4,0.3-0.7,0.7-0.7c1.4,0,2.6-0.1,3.5-0.3c1-0.2,1.8-0.6,2.4-1.2c0.5-0.6,0.9-1.4,1-2.5c0.1-1.1,0.2-2.4,0.2-4.1V10.9
		c0-1.7-0.1-3-0.2-4.1c-0.2-1.1-0.5-1.9-1.1-2.5C78.8,3.7,78,3.2,77,3c-0.9-0.2-2-0.3-3.4-0.3c-0.4,0-0.7-0.3-0.7-0.7v0
		c0-0.4,0.3-0.7,0.7-0.7h39.8c0.4,0,0.7,0.3,0.7,0.7l0.5,10.6c0,0.4-0.3,0.8-0.7,0.8L113.7,13.3z"/>
	<path id="XMLID_17_" d="M104.5,55.7v-0.1c0-0.4,0.3-0.7,0.7-0.7c1.4,0,2.6-0.1,3.5-0.3c1-0.2,1.8-0.6,2.4-1.2
		c0.5-0.6,0.9-1.4,1-2.5c0.1-1.1,0.2-2.4,0.2-4.1V10.9c0-1.7-0.1-3.1-0.2-4.1c-0.1-1.1-0.5-1.9-1-2.5c-0.5-0.6-1.3-1-2.4-1.3
		c-0.9-0.2-2.1-0.3-3.5-0.3c-0.4,0-0.7-0.3-0.7-0.7v0c0-0.4,0.3-0.7,0.7-0.7h22.2c0.4,0,0.7,0.3,0.7,0.7v0c0,0.4-0.3,0.7-0.7,0.7
		c-1.4,0-2.6,0.1-3.4,0.3c-1,0.2-1.9,0.7-2.4,1.3c-0.6,0.6-0.9,1.5-1.1,2.5c-0.2,1.1-0.3,2.4-0.3,4.1v35.8c0,1.7,0.1,3,0.2,4.1
		c0.2,1.1,0.5,1.9,1.1,2.5c0.5,0.6,1.3,1,2.4,1.2c0.9,0.2,2.1,0.3,3.6,0.3c0.4,0,0.7,0.3,0.7,0.7v0.1c0,0.4-0.3,0.7-0.7,0.7h-22.2
		C104.8,56.5,104.5,56.1,104.5,55.7z"/>
	
		<line id="XMLID_5_" fill="none" stroke="#000000" stroke-width="3" stroke-miterlimit="10" x1="44.8" y1="34.9" x2="69.5" y2="34.9"/>
	<g id="XMLID_12_">
		<path id="XMLID_13_" d="M40,41.7c0,2.3-0.5,4.4-1.4,6.2c-0.9,1.8-2.2,3.4-3.7,4.7c-1.5,1.3-3.3,2.3-5.3,3c-2,0.7-4.1,1-6.2,1
			c-1.4,0-2.8-0.2-4.2-0.5c-1.4-0.3-2.8-0.7-4-1.1c-1.3-0.4-2.4-0.7-3.4-1.1c-1-0.3-1.9-0.5-2.5-0.5c-0.4,0-0.8,0.1-1.1,0.3
			c-0.3,0.2-0.5,0.4-0.7,0.8c-0.2,0.3-0.3,0.6-0.4,1c0,0.2-0.1,0.3-0.1,0.5c-0.1,0.3-0.4,0.6-0.7,0.6h0c-0.4,0-0.7-0.3-0.7-0.7V39
			c0-0.4,0.3-0.7,0.7-0.7h0c0.4,0,0.7,0.3,0.7,0.6c0.3,2,0.8,3.8,1.5,5.5c0.8,1.9,1.8,3.5,3.2,4.8c1.3,1.3,2.9,2.4,4.7,3.1
			c1.8,0.7,3.9,1.1,6.3,1.1c1.3,0,2.5-0.2,3.8-0.5c1.3-0.4,2.4-0.9,3.4-1.6c1-0.7,1.8-1.6,2.4-2.7c0.6-1.1,0.9-2.4,0.9-3.8
			c0-1.5-0.4-2.9-1.2-4.1c-0.8-1.2-1.9-2.4-3.2-3.4c-1.3-1.1-2.8-2.1-4.5-3c-1.7-0.9-3.4-1.9-5.2-2.9c-1.7-1-3.5-2-5.2-3.1
			c-1.7-1.1-3.2-2.3-4.5-3.5C8,23.5,6.9,22,6.1,20.5c-0.8-1.6-1.2-3.4-1.2-5.4c0-2.2,0.4-4.1,1.3-5.9c0.8-1.7,2-3.2,3.4-4.4
			c1.4-1.2,3-2.1,4.9-2.7c1.8-0.6,3.8-0.9,5.8-0.9c1.2,0,2.4,0.2,3.6,0.5s2.3,0.6,3.4,1c1.1,0.4,2.1,0.7,3,1
			c0.9,0.3,1.6,0.5,2.2,0.5c0.4,0,0.8-0.1,1-0.3c0.3-0.2,0.5-0.5,0.7-0.8c0.2-0.3,0.4-0.6,0.5-1c0.1-0.1,0.1-0.3,0.1-0.4
			c0.1-0.3,0.4-0.5,0.7-0.5h0.2c0.4,0,0.7,0.3,0.7,0.7v16.7c0,0.4-0.3,0.7-0.7,0.7h-0.1c-0.4,0-0.7-0.3-0.7-0.7
			c-0.2-1.8-0.6-3.6-1.3-5.2c-0.7-1.8-1.7-3.5-2.9-4.8c-1.2-1.4-2.7-2.5-4.4-3.3c-1.7-0.8-3.7-1.2-6-1.2c-1.2,0-2.3,0.2-3.4,0.6
			c-1.1,0.4-2.1,0.9-3,1.6C13.1,7.2,12.4,8,11.8,9c-0.5,1-0.8,2.1-0.8,3.3c0,1.5,0.4,2.8,1.2,3.9c0.8,1.2,1.9,2.3,3.3,3.3
			c1.4,1,2.9,2,4.6,2.9c1.7,0.9,3.5,1.8,5.3,2.8c1.8,1,3.6,2,5.3,3c1.7,1.1,3.3,2.3,4.6,3.6c1.4,1.3,2.5,2.8,3.3,4.4
			C39.6,37.8,40,39.6,40,41.7z"/>
	</g>
</g>
</svg>
